<svg xmlns="http://www.w3.org/2000/svg" fill="none" viewBox="0 0 512 512" preserveAspectRatio="xMidYMin slice"><path fill="#B30415" d="M478.525 485L189.094 474.661L0 393.446L321.493 396.69L478.525 485Z"/><path fill="#C80011" d="M512 165.498L435.518 90.8698C416.796 263.728 372.421 357.882 321.493 396.666L478.525 485L512 165.498Z"/><path fill="#C80011" d="M427.265 82.8261L370.06 27L342.039 240.295C377.579 206.793 406.361 157.061 427.265 82.8261Z"/><path fill="#E8E4E2" d="M435.518 90.8698L427.265 82.8261C406.361 157.061 377.579 206.793 342.039 240.295L321.493 396.666C372.421 357.882 416.796 263.728 435.518 90.8698Z"/><path fill="#FF2D29" d="M370.06 27L132.169 52.1201C92.2119 223.244 136.685 298.194 215.67 296.425C256.37 295.514 307.455 271.779 342.039 240.295L370.06 27ZM223.619 254.915C182.865 256.381 156.462 221.555 163.579 177.74C170.598 134.559 207.882 97.2135 247.894 93.6836C288.969 90.0643 318.09 123.228 311.84 168.464C305.501 214.388 265.498 253.405 223.619 254.915Z"/><path fill="#FF2D29" d="M118.272 53.5764L61.121 59.6085L0 393.412L85.3423 394.27C37.6955 333.994 34.1369 218.999 118.272 53.5764Z"/><path fill="white" d="M223.619 254.915C265.498 253.405 305.501 214.388 311.84 168.464C318.09 123.228 288.969 90.0643 247.894 93.6836C207.882 97.2135 170.598 134.559 163.579 177.74C156.462 221.555 182.865 256.381 223.619 254.915Z"/><path fill="white" d="M215.667 296.441C136.682 298.219 92.2177 223.26 132.166 52.1362L118.272 53.6018C34.1277 219.033 37.6952 334.037 85.342 394.304L321.493 396.69L342.039 240.295C307.455 271.779 256.366 295.53 215.667 296.441Z"/></svg>