<?xml version="1.0" encoding="utf-8"?><!--Generator: Adobe Illustrator 22.0.0, SVG Export Plug-In . SVG Version: 6.00 Build 0)--><svg xmlns="http://www.w3.org/2000/svg" xmlns:xlink="http://www.w3.org/1999/xlink" xml:space="preserve" id="Layer_1" x="0px" y="0px" enable-background="new 0 0 661.7 160" version="1.1" viewBox="0 0 661.7 160" preserveAspectRatio="xMidYMin slice"><path fill="#FFFFFF" d="M0.5,126.9V95.5c5.4,7.4,11.3,11.1,17.6,11.1c2.4,0,4.3-0.6,5.8-1.8c1.5-1.2,2.2-2.7,2.2-4.6	c0-2.6-1.6-5.2-4.9-7.7l-4.5-3.4c-3-2.2-5.5-4.3-7.7-6.5c-2.1-2.1-3.8-4.3-5.1-6.6c-1.3-2.3-2.3-4.6-2.9-7s-0.9-5-0.9-7.6	c0-4.6,1.1-9.4,3.3-14.4c1.1-2.3,2.3-4.4,3.8-6.4c1.4-1.9,3.1-3.6,5-5.1c5.2-4.2,11.5-6.4,18.8-6.4c6.6,0,13.2,1.7,19.8,5.1v30.6	c-2.2-3.5-4.8-6.2-7.7-8.2c-2.9-2-5.7-3-8.4-3c-2.1,0-3.9,0.6-5.2,1.8c-1.4,1.1-2.1,2.5-2.1,4.1c0,2.6,1.9,5.2,5.6,7.8l4.4,3.1	c5.8,4,10,8.2,12.5,12.4c2.6,4.2,3.8,9.2,3.8,14.9c0,9.7-3.1,17.6-9.2,23.9c-6.1,6.3-13.9,9.4-23.2,9.4	C14.8,131.1,7.9,129.7,0.5,126.9z M97.5,130.1h-27V54.1H55.6v-24H113v24H97.5L97.5,130.1L97.5,130.1z M188.6,130.1h-29.2l-13.3-35.6	c-0.1-0.6-0.4-1.4-0.7-2.4c-0.3-1-0.7-2.2-1.2-3.6l0.2,6.6v34.9h-26.9V30.2h27.6c12.2,0,21.3,2.4,27.3,7.2	c7.7,6.1,11.5,14.8,11.5,26.1c0,12.1-5.2,20.4-15.5,25L188.6,130.1L188.6,130.1z M144.6,75h1.8c3.1,0,5.7-1.2,7.8-3.6	c2.1-2.4,3.1-5.4,3.1-9.1c0-7.5-3.9-11.2-11.7-11.2h-1L144.6,75L144.6,75z M229.8,130.1h-27V87.8L178,30.2h28.1L211,45	c0.9,2.9,1.8,5.7,2.6,8.3c0.8,2.7,1.4,5.2,2,7.7c1-3.7,1.9-6.8,2.6-9.5c0.7-2.7,1.4-4.8,1.9-6.4l4.9-14.9h28l-23.2,57.6L229.8,130.1	L229.8,130.1z M328.1,130.1H299L281.1,84l0.7,46.1h-27V30.2h27L281.1,73L297,30.2h28.5l-21.5,48.2L328.1,130.1L328.1,130.1z M369.3,130.1h-27V54.1h-14.9v-24h57.3v24h-15.5V130.1z M416.6,130.1h-27V30.2h27V130.1z M449.3,130.1h-27V30.2h26.1	c13,0,22.7,2.7,29,8c7.4,6.3,11.1,15,11.1,26.1c0,12.1-3.9,21.2-11.8,27.1c-5.4,4-13.1,6-23.2,6h-4.2L449.3,130.1L449.3,130.1z M449.3,76.4l1.2,0.1c3.3,0,5.9-1,7.8-3c1.9-2,2.9-4.8,2.9-8.2c0-3.4-0.9-6.3-2.8-8.4c-1.9-2.2-4.3-3.3-7.2-3.3h-1.9L449.3,76.4	L449.3,76.4z M491.9,126.9V95.5c5.4,7.4,11.3,11.1,17.6,11.1c2.4,0,4.3-0.6,5.8-1.8c1.5-1.2,2.2-2.7,2.2-4.6c0-2.6-1.6-5.2-4.9-7.7	l-4.5-3.4c-3-2.2-5.5-4.3-7.7-6.5c-2.1-2.1-3.8-4.3-5.1-6.6c-1.3-2.3-2.3-4.6-2.9-7c-0.6-2.4-0.9-5-0.9-7.6c0-4.6,1.1-9.4,3.3-14.4	c1.1-2.3,2.3-4.4,3.8-6.4c1.4-1.9,3.1-3.6,5-5.1c5.2-4.2,11.5-6.4,18.8-6.4c6.6,0,13.2,1.7,19.8,5.1v30.6c-2.2-3.5-4.8-6.2-7.7-8.2	c-2.9-2-5.7-3-8.4-3c-2.1,0-3.8,0.6-5.2,1.8c-1.4,1.1-2.1,2.5-2.1,4.1c0,2.6,1.9,5.2,5.6,7.8l4.4,3.1c5.8,4,10,8.2,12.5,12.4	c2.5,4.2,3.8,9.2,3.8,14.9c0,9.7-3.1,17.6-9.2,23.9c-6.1,6.3-13.9,9.4-23.2,9.4C506.2,131.1,499.2,129.7,491.9,126.9L491.9,126.9z M549.6,130.1V30.2h50.1v24h-23.2v14.1h20.8v24h-20.8v13.9h23.2v24H549.6z M645.9,130.1h-27V54.1h-14.9v-24h57.3v24h-15.5	L645.9,130.1L645.9,130.1z"/></svg>